<?xml version="1.0" encoding="UTF-8" standalone="no"?><!DOCTYPE svg PUBLIC "-//W3C//DTD SVG 1.1//EN" "http://www.w3.org/Graphics/SVG/1.1/DTD/svg11.dtd"><svg width="100%" height="100%" viewBox="0 0 749 300" version="1.1" xmlns="http://www.w3.org/2000/svg" xmlns:xlink="http://www.w3.org/1999/xlink" xml:space="preserve" xmlns:serif="http://www.serif.com/" style="fill-rule:evenodd;clip-rule:evenodd;stroke-linejoin:round;stroke-miterlimit:1.41421;"><rect id="sfcon-medium" x="0" y="0" width="749" height="300" style="fill:none;"/><clipPath id="_clip1"><rect x="0" y="0" width="749" height="300"/></clipPath><g clip-path="url(#_clip1)"><g id="sfcon-medium1" serif:id="sfcon-medium"><path d="M300,30c0,-16.557 -13.443,-30 -30,-30l-240,0c-16.557,0 -30,13.443 -30,30l0,240c0,16.557 13.443,30 30,30l240,0c16.557,0 30,-13.443 30,-30l0,-240Z" style="fill:#6e358c;"/><path d="M225.973,38.889c-16.691,0.571 -31.263,9.785 -42.109,22.497c-12.009,13.961 -19.996,30.505 -25.759,47.404c-10.292,-8.444 -18.229,-19.369 -34.756,-24.121c-12.768,-3.671 -26.177,-2.162 -38.512,7.029c-5.842,4.362 -9.867,10.951 -11.78,17.165c-4.957,16.111 5.206,30.458 9.826,35.603l10.102,10.814c2.077,2.124 7.093,7.658 4.638,15.586c-2.64,8.634 -13.041,14.206 -23.708,10.931c-4.767,-1.462 -11.611,-5.01 -10.075,-9.999c0.627,-2.048 2.092,-3.589 2.883,-5.336c0.714,-1.526 1.063,-2.66 1.28,-3.339c1.948,-6.355 -0.718,-14.632 -7.53,-16.738c-6.36,-1.951 -12.864,-0.405 -15.387,7.778c-2.859,9.299 1.591,26.178 25.434,33.523c27.932,8.596 51.555,-6.619 54.906,-26.447c2.113,-12.42 -3.501,-21.654 -13.772,-33.52l-8.377,-9.267c-5.068,-5.065 -6.811,-13.702 -1.564,-20.338c4.433,-5.605 10.735,-7.987 21.074,-5.18c15.085,4.09 21.803,14.558 33.018,23.002c-4.623,15.193 -7.655,30.443 -10.392,44.116l-1.681,10.202c-8.016,42.045 -14.139,65.143 -30.045,78.4c-3.208,2.283 -7.788,5.696 -14.69,5.939c-3.627,0.111 -4.796,-2.385 -4.846,-3.475c-0.082,-2.534 2.057,-3.7 3.478,-4.84c2.13,-1.163 5.344,-3.085 5.124,-9.246c-0.232,-7.281 -6.261,-13.591 -14.98,-13.301c-6.528,0.22 -16.48,6.357 -16.102,17.608c0.384,11.622 11.212,20.329 27.543,19.776c8.728,-0.293 28.222,-3.844 47.427,-26.673c22.357,-26.18 28.609,-56.181 33.311,-78.143l5.253,-28.999c2.913,0.352 6.033,0.589 9.426,0.668c27.847,0.589 41.766,-13.828 41.983,-24.323c0.141,-6.349 -4.163,-12.604 -10.192,-12.454c-4.307,0.12 -9.727,2.997 -11.022,8.956c-1.278,5.845 8.856,11.127 0.937,16.269c-5.625,3.639 -15.709,6.199 -29.913,4.122l2.581,-14.274c5.271,-27.065 11.772,-60.353 36.438,-61.167c1.799,-0.085 8.37,0.076 8.523,4.429c0.044,1.445 -0.32,1.826 -2.016,5.145c-1.734,2.59 -2.388,4.805 -2.303,7.336c0.238,6.906 5.491,11.453 13.099,11.189c10.172,-0.343 13.093,-10.242 12.926,-15.334c-0.416,-11.965 -13.022,-19.524 -29.699,-18.973Z" style="fill:#fefefe;fill-rule:nonzero;"/><path d="M501.582,61.158c-9.547,-5.039 -31.558,-6.895 -42.432,-6.895c-57.283,0 -93.35,39.515 -93.35,95.737c0,57.283 35.007,95.737 93.35,95.737c11.669,0 32.355,-1.856 42.432,-7.956c0,0 0,-0.001 0,-0.002c-0.233,-3.502 -1.997,-6.723 -4.822,-8.807c-2.824,-2.083 -6.423,-2.816 -9.838,-2.005c-9.337,2.193 -19.884,2.858 -27.772,2.858c-48.796,0 -75.051,-33.15 -75.051,-79.825c0,-45.879 27.05,-79.825 75.051,-79.825c8.196,0 17.868,0.738 26.822,2.814c3.642,0.859 7.477,0.068 10.482,-2.162c3.005,-2.23 4.874,-5.672 5.107,-9.406c0.016,-0.171 0.021,-0.263 0.021,-0.263Zm3.086,113.771c0,36.862 19.36,70.808 63.118,70.808c43.757,0 63.117,-33.946 63.117,-70.808c0,-36.863 -19.36,-70.808 -63.117,-70.808c-43.758,0 -63.118,33.945 -63.118,70.808Zm153.671,-43.493c5.57,-12.2 15.648,-27.315 43.758,-27.315c33.415,0 46.145,22.276 46.145,51.979c0,0 0,49.722 0,73.751c0,7.016 -5.688,12.703 -12.704,12.704c-2.31,0 -4.004,0 -4.004,0l0,-82.212c0,-25.459 -9.017,-41.902 -32.089,-41.902c-30.498,0 -40.045,26.785 -40.045,49.327c0,0 0,40.741 0,62.083c0,7.016 -5.688,12.703 -12.704,12.704c-2.309,0 -4.004,0 -4.004,0l0.003,-135.252c0,0 0.966,0 2.41,0c7.016,0 12.704,5.688 12.704,12.704c0,5.813 0,11.429 0,11.429l0.53,0Zm-135.372,43.493c0,-31.294 15.647,-56.488 44.819,-56.488c29.172,0 44.818,25.194 44.818,56.488c0,31.293 -15.646,56.487 -44.818,56.487c-29.172,0 -44.819,-25.194 -44.819,-56.487Z" style="fill:#6e358c;"/></g></g></svg>